<svg viewBox="0 0 128 128" xml:space="preserve" xmlns="http://www.w3.org/2000/svg"><path d="M95 115H33c-3.3 0-6-2.7-6-6V19c0-3.3 2.7-6 6-6h62c3.3 0 6 2.7 6 6v90c0 3.3-2.7 6-6 6z" fill="#3E3E42" class="fill-3e3e42"></path><path fill="#57575E" d="M32 27h64v74H32z" class="fill-57575e"></path><circle cx="64" cy="108" fill="#323235" r="4" class="fill-323235"></circle><circle cx="64" cy="108" opacity=".1" r="3.5" fill="#ffffff" class="fill-000000"></circle><path d="M73 21H55c-.6 0-1-.4-1-1s.4-1 1-1h18c.6 0 1 .4 1 1s-.4 1-1 1z" fill="#323235" class="fill-323235"></path></svg>