<svg width="26" height="26" viewBox="0 0 26 26" fill="none" xmlns="http://www.w3.org/2000/svg">
<path fill-rule="evenodd" clip-rule="evenodd" d="M16.3313 0.9125C16.5536 0.801359 16.8109 0.783037 17.0467 0.861559C17.2825 0.940082 17.4775 1.10902 17.5888 1.33125L19.8551 5.86375C20.3892 5.88958 20.8767 5.93375 21.3176 5.99625C22.6376 6.185 23.7301 6.5925 24.5063 7.5525C25.2826 8.5125 25.4526 9.66625 25.3613 10.9963C25.2738 12.285 24.9238 13.9113 24.4888 15.9425L23.9251 18.5763C23.6313 19.9475 23.3926 21.0588 23.0926 21.9263C22.7801 22.8325 22.3676 23.5763 21.6651 24.145C20.9626 24.7138 20.1476 24.96 19.1976 25.0763C18.2851 25.1875 17.1476 25.1875 15.7476 25.1875H10.2526C8.85006 25.1875 7.71381 25.1875 6.80131 25.0763C5.85131 24.96 5.03631 24.7138 4.33381 24.145C3.63131 23.5763 3.21881 22.8325 2.90631 21.9275C2.60631 21.0588 2.36881 19.9475 2.07381 18.5775L1.51006 15.9438C1.07506 13.9113 0.726311 12.285 0.637561 10.9963C0.546311 9.66625 0.716311 8.51375 1.49256 7.5525C2.26756 6.5925 3.36006 6.185 4.68006 5.99625C5.12173 5.93458 5.60923 5.89042 6.14256 5.86375L8.41256 1.33125C8.52478 1.11079 8.71958 0.943615 8.95452 0.86616C9.18946 0.788705 9.44549 0.807247 9.66682 0.917746C9.88815 1.02824 10.0568 1.22174 10.1361 1.45607C10.2154 1.6904 10.1988 1.94657 10.0901 2.16875L8.26506 5.815C8.72006 5.8125 9.19881 5.81167 9.70131 5.8125H16.2988C16.8013 5.8125 17.2801 5.81333 17.7351 5.815L15.9113 2.16875C15.8002 1.94645 15.7818 1.68912 15.8604 1.45331C15.9389 1.21751 16.1078 1.02254 16.3301 0.91125M5.16506 7.8225L4.66131 8.83C4.60519 8.94027 4.57144 9.06055 4.56202 9.18392C4.55261 9.30729 4.5677 9.4313 4.60644 9.54881C4.64518 9.66631 4.7068 9.77499 4.78774 9.86857C4.86868 9.96215 4.96734 10.0388 5.07804 10.094C5.18874 10.1493 5.30928 10.1821 5.43272 10.1906C5.55616 10.199 5.68005 10.183 5.79725 10.1433C5.91445 10.1037 6.02265 10.0412 6.1156 9.95955C6.20854 9.87788 6.28441 9.77862 6.33881 9.6675L7.32256 7.7C8.03506 7.6875 8.84756 7.68625 9.77756 7.68625H16.2226C17.1526 7.68625 17.9651 7.68625 18.6776 7.69875L19.6613 9.6675C19.7735 9.88796 19.9683 10.0551 20.2033 10.1326C20.4382 10.21 20.6942 10.1915 20.9156 10.081C21.1369 9.97051 21.3056 9.77701 21.3849 9.54268C21.4641 9.30835 21.4476 9.05218 21.3388 8.83L20.8351 7.8225L21.0526 7.85125C22.1576 8.01 22.6988 8.29875 23.0488 8.73C23.3926 9.155 23.5613 9.73375 23.4938 10.8112H2.50631C2.43881 9.73375 2.60756 9.155 2.95131 8.73C3.30131 8.29875 3.84256 8.01 4.94756 7.85125L5.16506 7.8225ZM3.36006 15.625C3.14516 14.6489 2.94472 13.6696 2.75881 12.6875H23.2413C23.0546 13.6695 22.8538 14.6488 22.6388 15.625L22.1038 18.125C21.7938 19.5688 21.5788 20.5675 21.3201 21.315C21.0701 22.04 20.8151 22.4225 20.4863 22.6875C20.1588 22.9525 19.7301 23.1225 18.9713 23.215C18.1851 23.3113 17.1626 23.3125 15.6863 23.3125H10.3126C8.83756 23.3125 7.81506 23.3113 7.02881 23.215C6.26881 23.1225 5.84131 22.9525 5.51381 22.6875C5.18506 22.4225 4.92881 22.0388 4.68006 21.315C4.42131 20.5675 4.20506 19.5688 3.89631 18.125L3.36006 15.625Z" fill="white"/>
</svg>
