<svg viewBox="0 0 128 128" xml:space="preserve" xmlns="http://www.w3.org/2000/svg" fill-rule="evenodd" clip-rule="evenodd" stroke-linejoin="round" stroke-miterlimit="2"><path d="M75 53a4 4 0 0 0-4-4H57a4 4 0 0 0-4 4v30a4 4 0 0 0 4 4h14a4 4 0 0 0 4-4V53Z" fill="#424243" class="fill-424243"></path><path d="M73.284 49.716c.451.647.716 1.435.716 2.284v30a4 4 0 0 1-4 4H56a3.982 3.982 0 0 1-2.284-.716A3.996 3.996 0 0 0 57 87h14a4 4 0 0 0 4-4V53c0-1.36-.679-2.561-1.716-3.284ZM57.177 81.823A2 2 0 0 1 56 80V54a2 2 0 0 1 2-2h12a2 2 0 0 1 1.823 1.177C71.726 52.216 70.811 51 70 51H57a2 2 0 0 0-2 2v27c0 .762 1.342 1.697 2.177 1.823Z" fill="#fffcfc" class="fill-202020"></path><path d="M72 54a2 2 0 0 0-2-2H58a2 2 0 0 0-2 2v26a2 2 0 0 0 2 2h12a2 2 0 0 0 2-2V54Z" fill="#f6f8f9" class="fill-f6f8f9"></path><path d="M57.177 81.823A1.986 1.986 0 0 1 57 81V55a2 2 0 0 1 2-2h12c.293 0 .572.063.823.177A2 2 0 0 0 70 52H58a2 2 0 0 0-2 2v26a2 2 0 0 0 1.177 1.823Z" fill="#eeefef" class="fill-eeefef"></path><path d="M62.536 69.586a2 2 0 1 0 2.828 2.828 2 2 0 0 0-2.828-2.828Zm-.708-.707a2.995 2.995 0 0 1 2.122-.878 2.99 2.99 0 0 1 2.121.878 1 1 0 0 0 1.414-1.414 4.981 4.981 0 0 0-3.535-1.464c-1.28 0-2.56.488-3.536 1.464a1 1 0 0 0 1.414 1.414Zm-2.121-2.121a5.981 5.981 0 0 1 4.243-1.756c1.536 0 3.072.585 4.242 1.756.391.39 1.024.39 1.415 0 .39-.391.39-1.024 0-1.415a7.975 7.975 0 0 0-5.657-2.341c-2.048 0-4.096.78-5.657 2.341a1 1 0 0 0 1.414 1.415Z" fill="#41b3e6" class="fill-41b3e6"></path><path d="M64.773 69.177a2.002 2.002 0 0 1-2.646 2.646 2 2 0 1 0 2.646-2.646Zm1.948-2.34a1.002 1.002 0 0 1-1.65 1.042 2.99 2.99 0 0 0-2.121-.878c-.768 0-1.536.293-2.122.878a.997.997 0 0 1-.706.293.994.994 0 0 0 1.007.999 1.997 1.997 0 0 1 2.271-1.119 2.99 2.99 0 0 1 2.671.827 1 1 0 0 0 1.414-1.414 4.96 4.96 0 0 0-.764-.628ZM58 66.05a1.001 1.001 0 0 0 1.13.992.992.992 0 0 1 .284-.577 4.985 4.985 0 0 1 4.016-1.441 5.977 5.977 0 0 1 4.762 1.734c.391.39 1.024.39 1.415 0 .39-.391.39-1.024 0-1.415a8.168 8.168 0 0 0-.791-.694 1.002 1.002 0 0 1-1.624 1.109 5.977 5.977 0 0 0-4.242-1.756 5.981 5.981 0 0 0-4.243 1.756.996.996 0 0 1-.707.292Z" fill="#2898d4" class="fill-2898d4"></path><path d="M109 24H87l2.694 23.344A2.999 2.999 0 0 0 92.674 50h10.652a2.999 2.999 0 0 0 2.98-2.656L109 24Z" fill="#767576" class="fill-767576"></path><path d="M106.306 47.344 109 24h-1.115l-.231 2H87.231l.114.992c.051.005.103.008.155.008h20.038l-2.232 19.344a2.999 2.999 0 0 1-2.98 2.656H91.674c-.57 0-1.106-.16-1.562-.439A2.998 2.998 0 0 0 92.674 50h10.652a2.999 2.999 0 0 0 2.98-2.656Z" fill="#616262" class="fill-616262"></path><path d="M106.568 12.272a3 3 0 0 0-2.91-2.272H92.342a3 3 0 0 0-2.91 2.272L87 22h22l-2.432-9.728Z" fill="#767576" class="fill-767576"></path><path d="m90.917 21 1.182-4.728A2.999 2.999 0 0 1 95.009 14h5.982c1.073 0 2.039.57 2.571 1.453-.471-1.021-1.523-2.453-2.778-2.453h-6.775a2.999 2.999 0 0 0-2.91 2.272L89.667 21H87.25L87 22h22l-2.432-9.728a2.998 2.998 0 0 0-1.348-1.833c.154.253.273.533.348.833L108 21H90.917Z" fill="#616262" class="fill-616262"></path><path d="M103.901 16.272a2.999 2.999 0 0 0-2.91-2.272h-5.982a2.999 2.999 0 0 0-2.91 2.272L90.667 22h14.666l-1.432-5.728Z" fill="#424243" class="fill-424243"></path><path d="m91.917 22 1.182-4.728A2.999 2.999 0 0 1 96.009 15h5.982c.567 0 1.103.159 1.562.439A3 3 0 0 0 100.991 14h-5.982a2.999 2.999 0 0 0-2.91 2.272L90.667 22h1.25Z" fill="#fffcfc" class="fill-202020"></path><path d="M111 22.5a1.503 1.503 0 0 0-1.5-1.5h-23a1.503 1.503 0 0 0-1.5 1.5v2a1.503 1.503 0 0 0 1.5 1.5h23a1.503 1.503 0 0 0 1.5-1.5v-2Z" fill="#c2c2c2" class="fill-bdbdbd"></path><path d="M109.935 21.065c.043.14.065.286.065.435v2a1.503 1.503 0 0 1-1.5 1.5h-23c-.149 0-.296-.022-.435-.065A1.501 1.501 0 0 0 86.5 26h23a1.503 1.503 0 0 0 1.5-1.5v-2a1.503 1.503 0 0 0-1.065-1.435Z" fill="#767576" class="fill-767576"></path><path d="M97.599 31.013a6.004 6.004 0 0 0-5.557 6.7l-.008.028-.732 2.732a1 1 0 0 0 1.932.518l.069-.259A5.99 5.99 0 0 0 98 43a5.97 5.97 0 0 0 3.317-1.001c.07-.004.14-.014.21-.033l2.732-.732a1 1 0 0 0-.518-1.932l-.225.06a6 6 0 0 0-2.538-7.571.998.998 0 0 0-.271-.498l-2-2a1 1 0 0 0-1.414 1.414l.306.306Zm-.037 2.011a4.002 4.002 0 0 0-3.555 4.21l1.984.532a1 1 0 0 1-.518 1.932l-.554-.149a3.992 3.992 0 0 0 5.158.869l-.507-1.891a1 1 0 0 1 1.932-.518l.161.6a4 4 0 0 0-1.741-5.117l-1.215 1.215a1 1 0 0 1-1.414-1.414l.269-.269Z" fill="#66bc6a" class="fill-66bc6a"></path><path d="M104 39.268c0 .441-.294.846-.741.966l-2.732.732a1.02 1.02 0 0 1-.21.033A5.97 5.97 0 0 1 97 42a5.99 5.99 0 0 1-4.697-2.268l-.069.259c-.12.447-.525.741-.966.741a1 1 0 0 0 1.966.259l.069-.259A5.99 5.99 0 0 0 98 43a5.97 5.97 0 0 0 3.317-1.001c.07-.004.14-.014.21-.033l2.732-.732a1 1 0 0 0-.259-1.966Zm-8.268-1.571a1 1 0 0 1-1.259 1.001l-.554-.149c.414.5.593.671 1 1 .531.157.712.211.987.168a.968.968 0 0 0 .792-.726 1 1 0 0 0-.707-1.225l-.259-.069Zm5.98-5.409A5.966 5.966 0 0 1 103 36c0 .838-.297 2.099-.609 2.824 0 0 .662.326 1.125.538A6.014 6.014 0 0 0 104 37a5.99 5.99 0 0 0-2.288-4.712Zm-1.141 4.98.837 1.993c.044-.101.218-.546.255-.652-.126-.502-.175-.815-.43-1.058a1.069 1.069 0 0 0-.662-.283Zm-6.541-.027c-.162-1.106.484-3.755 3.532-4.217l-.001-1.36c-2.002.218-4.33 2.168-4.561 4.336-.025.234.018.671.04 1l.99.241ZM97 34a1 1 0 0 0 1.707.707l1.215-1.215c.125.068.246.143.362.224a4.03 4.03 0 0 0-1.362-1.224l-1.215 1.215A.997.997 0 0 1 97 34Zm2.707-3.707a.998.998 0 0 1 .271.498c.239.137.468.291.686.459l-.957-.957Z" fill="#42a147" class="fill-42a147"></path><path d="M22.826 33.306a7.995 7.995 0 0 0-1.775-3.367A11.743 11.743 0 0 1 18 22c0-6.623 5.377-12 12-12s12 5.377 12 12c0 3.054-1.143 5.843-3.025 7.962a7.959 7.959 0 0 0-1.767 3.352C36.674 35.303 36 38 36 38v2H24v-2l-1.174-4.694Z" fill="#fcd935" class="fill-fcd935"></path><path d="M37.969 13.031A11.974 11.974 0 0 1 42 22c0 3.054-1.143 5.843-3.025 7.962a7.959 7.959 0 0 0-1.767 3.352C36.674 35.303 36 38 36 38v2H24v-1h11v-2s.674-2.697 1.208-4.686a7.959 7.959 0 0 1 1.767-3.352A11.951 11.951 0 0 0 41 21c0-3.057-1.146-5.849-3.031-7.969Zm-3.901 2.063A5.002 5.002 0 0 1 27 22a5.002 5.002 0 0 0 9-3 4.988 4.988 0 0 0-1.694-3.75.958.958 0 0 0-.238-.156ZM28.355 15a.997.997 0 0 1-.338.75 2.997 2.997 0 0 0 .422 4.811A2.972 2.972 0 0 1 28 19c0-.888.387-1.693 1-2.235.169-.149.354-.398.354-.728 0-.309-.101-.591-.354-.802a1.007 1.007 0 0 0-.645-.235ZM31 13v5a1 1 0 0 1-1 1 1 1 0 0 0 2 0v-5a1 1 0 0 0-1-1Z" fill="#fbc02a" class="fill-fbc02a"></path><path d="M41.621 25a11.97 11.97 0 0 1-2.646 4.962 7.959 7.959 0 0 0-1.767 3.352C36.674 35.303 36 38 36 38v2H24v-2l-1.174-4.694a7.995 7.995 0 0 0-1.775-3.367A11.695 11.695 0 0 1 18.38 25h23.241Z" fill="#f6f8f9" class="fill-f6f8f9"></path><path d="M40.316 25h1.305a11.97 11.97 0 0 1-2.646 4.962 7.959 7.959 0 0 0-1.767 3.352C36.674 35.303 36 38 36 38v2H24v-1h11v-2s.674-2.697 1.208-4.686a7.959 7.959 0 0 1 1.767-3.352A11.998 11.998 0 0 0 40.316 25ZM24 41h12v3c0 3.311-2.689 6-6 6s-6-2.689-6-6v-3Z" fill="#eeefef" class="fill-eeefef"></path><path d="M35 41h1v3c0 3.311-2.689 6-6 6a5.99 5.99 0 0 1-4.712-2.288A5.966 5.966 0 0 0 29 49c3.311 0 6-2.689 6-6v-2Z" fill="#e0e1e0" class="fill-e0e1e0"></path><path d="M38 42.5a1.503 1.503 0 0 0-1.5-1.5h-13a1.503 1.503 0 0 0-1.5 1.5 1.503 1.503 0 0 0 1.5 1.5h13a1.503 1.503 0 0 0 1.5-1.5Z" fill="#eeefef" class="fill-eeefef"></path><path d="M36.935 41.065A1.503 1.503 0 0 1 35.5 43h-13c-.149 0-.296-.022-.435-.065A1.501 1.501 0 0 0 23.5 44h13a1.503 1.503 0 0 0 1.5-1.5 1.503 1.503 0 0 0-1.065-1.435Z" fill="#e0e1e0" class="fill-e0e1e0"></path><path d="M38 39.5a1.503 1.503 0 0 0-1.5-1.5h-13a1.503 1.503 0 0 0-1.5 1.5 1.503 1.503 0 0 0 1.5 1.5h13a1.503 1.503 0 0 0 1.5-1.5Z" fill="#eeefef" class="fill-eeefef"></path><path d="M36.935 38.065A1.503 1.503 0 0 1 35.5 40h-13c-.149 0-.296-.022-.435-.065A1.501 1.501 0 0 0 23.5 41h13a1.503 1.503 0 0 0 1.5-1.5 1.503 1.503 0 0 0-1.065-1.435Z" fill="#e0e1e0" class="fill-e0e1e0"></path><path d="M31.983 15.75A3.001 3.001 0 1 1 27 18c0-.896.394-1.7 1.017-2.25a1.001 1.001 0 0 0-1.323-1.5A4.988 4.988 0 0 0 25 18c0 2.76 2.24 5 5 5s5-2.24 5-5a4.988 4.988 0 0 0-1.694-3.75 1 1 0 0 0-1.323 1.5ZM29 13v5a1 1 0 0 0 2 0v-5a1 1 0 0 0-2 0Z" fill="#424243" class="fill-424243"></path><path d="M33.068 14.094A5.002 5.002 0 0 1 26 21a5.002 5.002 0 0 0 9-3 4.988 4.988 0 0 0-1.694-3.75.958.958 0 0 0-.238-.156ZM27.355 14a.997.997 0 0 1-.338.75 2.997 2.997 0 0 0 .422 4.811A2.972 2.972 0 0 1 27 18c0-.888.387-1.693 1-2.235.169-.149.354-.398.354-.728 0-.309-.101-.591-.354-.802a1.007 1.007 0 0 0-.645-.235ZM30 12v5a1 1 0 0 1-1 1 1 1 0 0 0 2 0v-5a1 1 0 0 0-1-1Z" fill="#fffcfc" class="fill-202020"></path><path d="M100 108h-4l-1 7h6l-1-7Z" fill="#424243" class="fill-424243"></path><path d="m100 108 1 7h-6l.069-.484 5.022.123-.805-5.639h-3.429l.143-1h4Z" fill="#fffcfc" class="fill-202020"></path><path d="M110 116.913a1 1 0 0 0-.769-.973c-2.099-.495-7.983-1.813-11.231-1.813s-9.132 1.318-11.231 1.814a1 1 0 0 0-.768.972L86 117a1.002 1.002 0 0 0 1.115.993c2.34-.272 7.801-.866 10.885-.866 3.084 0 8.545.594 10.885.866A1.002 1.002 0 0 0 110 117v-.087Z" fill="#616262" class="fill-616262"></path><path d="M109 115.886V116a1.002 1.002 0 0 1-1.115.993c-2.34-.272-7.801-.866-10.885-.866-3.084 0-8.545.594-10.885.866A.888.888 0 0 1 86 117a1.002 1.002 0 0 0 1.115.993c2.34-.272 7.801-.866 10.885-.866 3.084 0 8.545.594 10.885.866A1.002 1.002 0 0 0 110 117v-.087a1 1 0 0 0-.769-.973l-.231-.054Z" fill="#424243" class="fill-424243"></path><path d="M118 90a3 3 0 0 0-3-3H81a3 3 0 0 0-3 3v15a3 3 0 0 0 3 3h34a3 3 0 0 0 3-3V90Z" fill="#616262" class="fill-616262"></path><path d="M116.562 87.438c.278.455.438.99.438 1.562v15a3 3 0 0 1-3 3H80c-.572 0-1.107-.16-1.562-.438A3 3 0 0 0 81 108h34a3 3 0 0 0 3-3V90a3 3 0 0 0-1.438-2.562Zm-34.385 17.385A2 2 0 0 1 81 103V92a2 2 0 0 1 2-2h30a2 2 0 0 1 1.823 1.177c-.047-.336-.114-.965-.409-1.317-.304-.363-.884-.86-1.414-.86H82a2 2 0 0 0-2 2v12c0 .53.467 1.11.83 1.414.36.301 1.095.377 1.347.409Z" fill="#424243" class="fill-424243"></path><path d="M115 92a2 2 0 0 0-2-2H83a2 2 0 0 0-2 2v11a2 2 0 0 0 2 2h30a2 2 0 0 0 2-2V92Z" fill="#f6f8f9" class="fill-f6f8f9"></path><path d="M82.177 104.823A1.996 1.996 0 0 1 82 104V93a2 2 0 0 1 2-2h30c.286 0 .567.061.823.177A2 2 0 0 0 113 90H83a2 2 0 0 0-2 2v11a2 2 0 0 0 1.177 1.823Z" fill="#eeefef" class="fill-eeefef"></path><path d="m110.293 92.293-9 9a1 1 0 0 0 1.414 1.414l9-9a1 1 0 0 0-1.414-1.414Zm-1.586 10.414 4-4a1 1 0 0 0-1.414-1.414l-4 4a1 1 0 0 0 1.414 1.414Zm-4.414-10.414-9 9a1 1 0 0 0 1.414 1.414l9-9a1 1 0 0 0-1.414-1.414Zm-6 0-9 9a1 1 0 0 0 1.414 1.414l9-9a1 1 0 0 0-1.414-1.414Zm-6 0-9 9a1 1 0 0 0 1.414 1.414l9-9a1 1 0 0 0-1.414-1.414Zm-6 0-3 3a1 1 0 0 0 1.414 1.414l3-3a1 1 0 0 0-1.414-1.414Z" fill="#fbef57" class="fill-fbef57"></path><path d="M111 92a.997.997 0 0 1-.293.707l-9 9A.997.997 0 0 1 101 102a1 1 0 0 0 1.707.707l9-9A1 1 0 0 0 111 92Zm1 5a.997.997 0 0 1-.293.707l-4 4A.997.997 0 0 1 107 102a1 1 0 0 0 1.707.707l4-4A1 1 0 0 0 112 97Zm-7-5a.997.997 0 0 1-.293.707l-9 9A.997.997 0 0 1 95 102a1 1 0 0 0 1.707.707l9-9A1 1 0 0 0 105 92Zm-6 0a.997.997 0 0 1-.293.707l-9 9A.997.997 0 0 1 89 102a1 1 0 0 0 1.707.707l9-9A1 1 0 0 0 99 92Zm-6 0a.997.997 0 0 1-.293.707l-9 9A.997.997 0 0 1 83 102a1 1 0 0 0 1.707.707l9-9A1 1 0 0 0 93 92Zm-6 0a.997.997 0 0 1-.293.707l-3 3A.997.997 0 0 1 83 96a1 1 0 0 0 1.707.707l3-3A1 1 0 0 0 87 92Z" fill="#fcd935" class="fill-fcd935"></path><path d="M50 91a4 4 0 0 0-4-4H14a4 4 0 0 0-4 4v8a4 4 0 0 0 4 4h32a4 4 0 0 0 4-4v-8Z" fill="#424243" class="fill-424243"></path><path d="M48.284 87.716c.451.647.716 1.435.716 2.284v8a4 4 0 0 1-4 4H13a3.982 3.982 0 0 1-2.284-.716A3.996 3.996 0 0 0 14 103h32a4 4 0 0 0 4-4v-8c0-1.36-.679-2.561-1.716-3.284Z" fill="#fffcfc" class="fill-202020"></path><path d="M46 100c0-.796-.316-1.559-.879-2.121A2.996 2.996 0 0 0 43 97H17c-.796 0-1.559.316-2.121.879A2.996 2.996 0 0 0 14 100v3h32v-3Z" fill="#eeefef" class="fill-eeefef"></path><path d="M15 103v-2c0-.796.316-1.559.879-2.121A2.996 2.996 0 0 1 18 98h26c.555 0 1.095.154 1.562.438A2.996 2.996 0 0 0 43 97H17c-.796 0-1.559.316-2.121.879A2.996 2.996 0 0 0 14 100v3h1Z" fill="#e0e1e0" class="fill-e0e1e0"></path><path d="M46 103a3 3 0 0 0-3-3H17a3 3 0 0 0-3 3h32Z" fill="#c2c2c2" class="fill-bdbdbd"></path><path d="M15.01 100.755A2.994 2.994 0 0 0 14 103h1v-2c0-.082.003-.164.01-.245Z" fill="#767576" class="fill-767576"></path><path d="M35 92a2 2 0 0 0-2-2h-6a2 2 0 0 0 0 4h6a2 2 0 0 0 2-2Z" fill="#ffffff" class="fill-ffffff"></path><path d="M33.823 90.177A2 2 0 0 1 32 93h-6c-.286 0-.567-.061-.823-.177A2 2 0 0 0 27 94h6a2 2 0 0 0 2-2 2 2 0 0 0-1.177-1.823Z" fill="#eeefef" class="fill-eeefef"></path><path d="M87 67.5a1 1 0 0 0 0-2 1 1 0 0 0 0 2Zm4 0a1 1 0 0 0 0-2 1 1 0 0 0 0 2Zm4 0a1 1 0 0 0 0-2 1 1 0 0 0 0 2Zm-16 0a1 1 0 0 0 0-2 1 1 0 0 0 0 2Zm4 0a1 1 0 0 0 0-2 1 1 0 0 0 0 2Zm15.888-3.059a1.001 1.001 0 0 0-1.944-.469 1 1 0 1 0 1.944.469ZM99 60.213a1 1 0 0 0-2 0 1 1 0 0 0 2 0Zm0-4a1 1 0 0 0-2 0 1 1 0 0 0 2 0ZM97 80.787a1 1 0 0 0 2 0 1 1 0 0 0-2 0Zm0-4a1 1 0 0 0 2 0 1 1 0 0 0-2 0Zm-.056-3.759a1.001 1.001 0 0 0 1.944-.469 1 1 0 1 0-1.944.469ZM95 71.5a1 1 0 0 0 0-2 1 1 0 0 0 0 2Zm-16 0a1 1 0 0 0 0-2 1 1 0 0 0 0 2Zm4 0a1 1 0 0 0 0-2 1 1 0 0 0 0 2Zm4 0a1 1 0 0 0 0-2 1 1 0 0 0 0 2Zm4 0a1 1 0 0 0 0-2 1 1 0 0 0 0 2ZM29 80.787a1 1 0 0 0 2 0 1 1 0 0 0-2 0Zm0-4a1 1 0 0 0 2 0 1 1 0 0 0-2 0Zm.112-4.228a1.001 1.001 0 0 0 1.944.469 1 1 0 1 0-1.944-.469ZM33 69.5a1 1 0 0 0 0 2 1 1 0 0 0 0-2Zm4 0a1 1 0 0 0 0 2 1 1 0 0 0 0-2Zm4 0a1 1 0 0 0 0 2 1 1 0 0 0 0-2Zm4 0a1 1 0 0 0 0 2 1 1 0 0 0 0-2Zm4 0a1 1 0 0 0 0 2 1 1 0 0 0 0-2ZM49 64.5a1 1 0 0 0 0 2 1 1 0 0 0 0-2Zm-4 0a1 1 0 0 0 0 2 1 1 0 0 0 0-2Zm-4 0a1 1 0 0 0 0 2 1 1 0 0 0 0-2Zm-4 0a1 1 0 0 0 0 2 1 1 0 0 0 0-2Zm-4 0a1 1 0 0 0 0 2 1 1 0 0 0 0-2Zm-1.944-1.53a1 1 0 0 0-1.944.471 1 1 0 0 0 1.944-.471ZM31 59.212a1 1 0 0 0-2 0 1 1 0 0 0 2 0Zm0-4a1 1 0 0 0-2 0 1 1 0 0 0 2 0Z" fill="#424243" class="fill-424243"></path><path d="M19 107v8.5a1.5 1.5 0 0 1-3 0 1 1 0 0 0-2 0c0 1.932 1.568 3.5 3.5 3.5s3.5-1.568 3.5-3.5V107a1 1 0 0 0-2 0Zm20 0v8.5c0 1.932 1.568 3.5 3.5 3.5s3.5-1.568 3.5-3.5a1 1 0 0 0-2 0 1.5 1.5 0 0 1-3 0V107a1 1 0 0 0-2 0Zm-16 0v8.5a1 1 0 0 0 2 0V107a1 1 0 0 0-2 0Zm12 0v8.5a1 1 0 0 0 2 0V107a1 1 0 0 0-2 0Zm-8-.041V113a1 1 0 0 0 2 0v-6.041a1 1 0 0 0-2 0Zm4 0V113a1 1 0 0 0 2 0v-6.041a1 1 0 0 0-2 0Z" fill="#c2c2c2" class="fill-bdbdbd"></path><path d="M20 106v8.5a3.501 3.501 0 0 1-5.424 2.924A3.5 3.5 0 0 0 21 115.5V107a1 1 0 0 0-1-1Zm25.026 8.5H45a3.501 3.501 0 0 1-5.424 2.924A3.5 3.5 0 0 0 46 115.5c0-.543-.434-.986-.974-1ZM24 106v8.5a1 1 0 0 1-1 1 1 1 0 0 0 2 0V107a1 1 0 0 0-1-1Zm12 0v8.5a1 1 0 0 1-1 1 1 1 0 0 0 2 0V107a1 1 0 0 0-1-1Zm-20.974 8.5H15c0 .676.449 1.249 1.064 1.436A1.527 1.527 0 0 1 16 115.5c0-.543-.434-.986-.974-1ZM40 106v8.5c0 .676.449 1.249 1.064 1.436A1.527 1.527 0 0 1 41 115.5V107a1 1 0 0 0-1-1Zm-12-.041V112a1 1 0 0 1-1 1 1 1 0 0 0 2 0v-6.041a1 1 0 0 0-1-1Zm4 0V112a1 1 0 0 1-1 1 1 1 0 0 0 2 0v-6.041a1 1 0 0 0-1-1Z" fill="#767576" class="fill-767576"></path></svg>